<?xml version="1.0" standalone="no"?><!DOCTYPE svg PUBLIC "-//W3C//DTD SVG 1.1//EN" "http://www.w3.org/Graphics/SVG/1.1/DTD/svg11.dtd"><svg t="1588958966244" class="icon" viewBox="0 0 1024 1024" version="1.1" xmlns="http://www.w3.org/2000/svg" p-id="1372" width="36" height="36" xmlns:xlink="http://www.w3.org/1999/xlink"><defs><style type="text/css"></style></defs><path d="M506.1 919.9C280.8 919.9 98.2 737.3 98.2 512s182.6-407.9 407.9-407.9 408 182.6 408 407.9-182.7 407.9-408 407.9z m-38.4-256.7c5.3-1.9 10.3-4.9 14.5-9.2l192.3-192.3c15.2-15.2 15.2-39.8 0-54.9-15.2-15.2-39.8-15.2-54.9 0L448.9 577.5l-70.7-70.7c-15.2-15.2-39.8-15.2-54.9 0s-15.2 39.8 0 54.9l96.2 96.2c13 13.1 33.2 14.9 48.2 5.3z" fill="#ff5777" p-id="1373"></path></svg>