<?xml version="1.0" standalone="no"?><!DOCTYPE svg PUBLIC "-//W3C//DTD SVG 1.1//EN" "http://www.w3.org/Graphics/SVG/1.1/DTD/svg11.dtd"><svg t="1589431872946" class="icon" viewBox="0 0 1024 1024" version="1.1" xmlns="http://www.w3.org/2000/svg" p-id="1509" width="16" height="16" xmlns:xlink="http://www.w3.org/1999/xlink"><defs><style type="text/css"></style></defs><path d="M822.5 869.3c-13.05 0-25.65-4.95-35.1-14.4L512.9 580.4 238.4 854.9c-9.45 9.45-21.6 14.4-35.1 14.4-13.05 0-25.65-4.95-34.65-14.4-9.45-9.45-14.4-21.6-14.4-35.1 0-13.05 4.95-25.65 14.4-35.1l274.5-274.5-274.5-274.5c-9.45-9.45-14.4-21.6-14.4-35.1 0-13.05 4.95-25.65 14.4-35.1 9.45-9.45 21.6-14.4 34.65-14.4 13.05 0 25.65 4.95 35.1 14.4L512.9 440l274.5-274.5c9.45-9.45 21.6-14.4 35.1-14.4 13.05 0 25.65 4.95 35.1 14.4a49.16 49.16 0 0 1 0 69.75l-274.5 274.5 274.5 274.5a49.16 49.16 0 0 1 0 69.75c-9.45 10.35-21.6 15.3-35.1 15.3z" fill="" p-id="1510"></path></svg>